<?xml version="1.0" encoding="UTF-8" standalone="no"?>
<svg width="89px" height="102px" viewBox="0 0 89 102" version="1.1" xmlns="http://www.w3.org/2000/svg" xmlns:xlink="http://www.w3.org/1999/xlink" xmlns:sketch="http://www.bohemiancoding.com/sketch/ns">
    <!-- Generator: Sketch 3.3.2 (12043) - http://www.bohemiancoding.com/sketch -->
    <title>NL Logo Copy</title>
    <desc>Created with Sketch.</desc>
    <defs></defs>
    <g id="Page-1" stroke="none" stroke-width="1" fill="none" fill-rule="evenodd" sketch:type="MSPage">
        <g id="Desktop-HD" sketch:type="MSArtboardGroup" transform="translate(-676.000000, -75.000000)">
            <g id="NL-Logo-Copy" sketch:type="MSLayerGroup" transform="translate(676.000000, 75.000000)">
                <path d="M44.55,101.852337 L0.582096774,76.4063469 L0.587903226,25.5216402 L44.5616129,0.0829238723 L88.5295161,25.530369 L88.5237097,76.4150758 L44.55,101.852337" id="Fill-1" fill="#231F1F" sketch:type="MSShapeGroup"></path>
                <path d="M49.8353226,29.2110251 L44.4890323,29.2110251 L44.4890323,44.3162631 C44.4890323,49.0414691 44.55,54.6351934 44.55,54.69775 L44.3641935,54.69775 L25.8808065,29.2110251 L15.3362903,29.2110251 L15.3362903,72.7256909 L25.7559677,72.7256909 L25.7559677,57.8066679 C25.7559677,52.1489321 25.6325806,46.8025245 25.6325806,46.7414227 L25.8183871,46.7414227 L44.3017742,72.7256909 L49.8353226,72.7256909 L74.6579032,72.7256909 L74.6579032,63.0279622 L55.1816129,63.0279622 L55.1816129,29.2110251 L49.8353226,29.2110251 Z" id="Fill-2" fill="#FFFFFF" sketch:type="MSShapeGroup"></path>
                <path d="M25.8183871,46.7414227 L25.6325806,46.7414227 C25.6325806,46.8025245 25.7559677,52.1489321 25.7559677,57.8066679 L25.7559677,72.7256909 L15.3362903,72.7256909 L15.3362903,29.2110251 L25.8808065,29.2110251 L44.3641935,54.69775 L44.55,54.69775 C44.55,54.6351934 44.4890323,49.0414691 44.4890323,44.3162631 L44.4890323,29.2110251 L54.9087097,29.2110251 L54.9087097,72.7256909 L44.3017742,72.7256909 L25.8183871,46.7414227 L25.8183871,46.7414227 Z M44.7619355,29.2110251 L55.1816129,29.2110251 L55.1816129,63.0279622 L74.6579032,63.0279622 L74.6579032,72.7256909 L44.7619355,72.7256909 L44.7619355,29.2110251 L44.7619355,29.2110251 Z" id="Stroke-3" stroke="#FFFFFF" sketch:type="MSShapeGroup"></path>
            </g>
        </g>
    </g>
</svg>