<svg width="89" height="102" viewBox="0 0 89 102" xmlns="http://www.w3.org/2000/svg"><title>NL Logo Copy</title><desc>Created with Sketch.</desc><g fill="none"><path d="M44.55 101.852L.582 76.406l.006-50.884L44.562.082 88.53 25.53l-.006 50.885-43.974 25.437" fill="#231F1F"/><path d="M49.835 29.21H44.49v15.106c0 4.725.06 10.32.06 10.382h-.186L25.88 29.21H15.337v43.516h10.42v-14.92c0-5.657-.123-11.003-.123-11.065h.185l18.484 25.986h30.356v-9.698H55.182V29.21h-5.347z" fill="#fff"/><path d="M25.818 46.74h-.185c0 .063.123 5.41.123 11.067v14.92h-10.42V29.21H25.88L44.365 54.7h.186c0-.063-.06-5.657-.06-10.382V29.21h10.42v43.516H44.3L25.818 46.74zm18.944-17.53h10.42V63.03h19.476v9.698H44.762V29.21z" stroke="#fff"/></g></svg>